<svg xmlns="http://www.w3.org/2000/svg" viewBox="0 0 100 64" fill="none">
  <defs>
    <linearGradient id="gitcard_grad" x1="0%" y1="0%" x2="0%" y2="100%">
      <stop offset="0%" stop-color="#37475A" /> <stop offset="100%" stop-color="#5B86B0" /> </linearGradient>
  </defs>

  <path d="M2,10 C2,5.58 5.58,2 10,2 H90 C94.42,2 98,5.58 98,10 V54 C98,58.42 94.42,62 90,62 H10 C5.58,62 2,58.42 2,54 V46 H14 C18.42,46 22,42.42 22,38 V26 C22,21.58 18.42,18 14,18 H2 V10Z" 
        stroke="url(#gitcard_grad)" 
        stroke-width="4" 
        stroke-linecap="round" 
        stroke-linejoin="round"/>

  <line x1="22" y1="32" x2="44" y2="32" stroke="url(#gitcard_grad)" stroke-width="4" stroke-linecap="round"/>
  <circle cx="44" cy="32" r="5" stroke="url(#gitcard_grad)" stroke-width="4"/>
  <line x1="49" y1="32" x2="64" y2="32" stroke="url(#gitcard_grad)" stroke-width="4" stroke-linecap="round"/>

  <g transform="translate(64, 18)">
    <circle cx="14" cy="14" r="14" stroke="url(#gitcard_grad)" stroke-width="4"/>
    <path d="M 21,10 A 7,7 0 0 0 7,10 V 18 A 7,7 0 0 0 21,18 V 14 H 14" 
          fill="none" 
          stroke="url(#gitcard_grad)" 
          stroke-width="3" 
          stroke-linecap="round" 
          stroke-linejoin="round"/>
  </g>
</svg>